<svg width="326" height="197" viewBox="0 0 326 197" fill="none" xmlns="http://www.w3.org/2000/svg">
<path d="M115.191 159.8L178.791 38.5H150.591L86.8906 159.8H115.191Z" fill="#5AB032"/>
<path d="M142.491 159.8L206.091 38.5H177.891L114.291 159.8H142.491Z" fill="#7EBA28"/>
<path d="M170.491 159.8L234.091 38.5H205.891L142.191 159.8H170.491Z" fill="#ABC91B"/>
<path d="M119.691 41.7L92.9911 92.6C92.4911 93.6 91.4911 94.2 90.2911 94.2H66.4911C65.1911 94.2 64.2911 92.8 64.9911 91.6L90.8911 42.2C91.7911 40.5 90.5911 38.5 88.6911 38.5H68.2911C66.0911 38.5 63.9911 39.7 62.9911 41.7L3.39107 155.4C2.39107 157.4 3.79107 159.8 6.09107 159.8H25.8911C27.9911 159.8 29.9911 158.6 30.9911 156.7L57.6911 105.7C58.1911 104.7 59.1911 104.1 60.3911 104.1H83.8911C85.2911 104.1 86.1911 105.6 85.4911 106.8L59.4911 156.3C58.6911 157.9 59.7911 159.8 61.5911 159.8H85.8911L149.491 38.5H124.891C122.791 38.5 120.791 39.7 119.691 41.7Z" fill="#138637"/>
<path d="M234.091 38.5L170.491 159.8H195.691C197.591 159.8 199.291 158.8 200.091 157.1L256.191 50.1C256.691 49.1 257.691 48.5 258.891 48.5H282.191C283.691 48.5 284.691 50.1 283.991 51.4L229.091 156.2C228.191 157.8 229.391 159.8 231.291 159.8H252.391C254.291 159.8 255.991 158.8 256.791 157.1L316.991 42.3C317.891 40.6 316.691 38.5 314.691 38.5H234.091Z" fill="#DEDD0C"/>
<path d="M324.592 44.1C324.392 43.8 324.192 43.5 323.992 43.3L318.992 37.5C317.892 36.3 316.391 35.5 314.691 35.5H187.792L200.192 11.9C201.192 10.1 201.092 8.1 200.092 6.4C199.892 6.1 196.392 1.9 196.392 1.9C195.292 0.699998 193.792 0 192.092 0C190.392 0 188.692 0.799999 187.592 2.3L162.192 35.5H124.892C121.592 35.5 118.492 37.3 116.992 40.3L90.2915 91.2H76.8915L98.6915 49.6C99.5915 47.9 99.4915 45.8 98.4915 44.2C98.2915 43.9 98.1915 43.7 97.9915 43.5L93.1915 37.9C92.1915 36.5 90.4915 35.6 88.6915 35.6H68.2915C64.8915 35.6 61.8915 37.4 60.2915 40.4L0.691513 154C-0.308487 155.9 -0.208486 158.1 0.891514 159.9C1.09151 160.2 1.29151 160.4 1.49151 160.7L6.49151 166.5C6.49151 166.5 6.49151 166.5 6.59151 166.6L6.89151 166.9C7.99151 168.1 9.59152 168.8 11.2915 168.8H30.8915C34.1915 168.8 37.0915 167 38.5915 164.1L64.4915 114.7C64.9915 113.7 65.9915 113.1 67.1915 113.1H78.8915L56.8915 155C55.9915 156.7 56.0915 158.7 57.0915 160.3C57.1915 160.5 57.3915 160.7 57.4915 160.9L62.2915 166.4C62.5915 166.8 62.8915 167.1 63.1915 167.4C64.1915 168.2 65.3915 168.7 66.6915 168.7H134.192L125.792 184.7C124.792 186.5 124.892 188.5 125.892 190.2C126.092 190.6 129.692 194.7 129.692 194.7C130.792 195.8 132.292 196.5 133.892 196.5C135.592 196.5 137.292 195.7 138.392 194.2L157.692 168.6H200.692C203.692 168.6 206.392 167 207.792 164.3L263.092 58.9C263.592 57.9 264.592 57.3 265.792 57.3H277.492L226.392 154.7C225.492 156.4 225.592 158.4 226.592 160.1C226.692 160.3 226.892 160.5 226.992 160.7L231.992 166.5C231.992 166.6 232.092 166.6 232.092 166.7L232.292 166.9C233.292 168 234.692 168.6 236.292 168.6H257.392C260.392 168.6 263.092 167 264.492 164.3L324.691 49.6C325.691 47.9 325.592 45.8 324.592 44.1ZM232.392 38.5C232.392 38.5 217.192 67.4 201.692 97L201.392 96.7C200.292 95.1 198.492 94.1 196.592 94.1H156.892L186.192 38.4H232.392V38.5ZM159.992 38.5L132.292 74.7C142.892 54.5 151.092 38.6 151.092 38.5H159.992ZM61.6915 159.8C59.8915 159.8 58.7915 157.9 59.5915 156.3L85.5915 106.8C86.1915 105.6 85.3915 104.1 83.9915 104.1H60.2915C59.1915 104.1 58.1915 104.7 57.5915 105.7L30.8915 156.7C29.8915 158.6 27.9915 159.8 25.7915 159.8H5.99151C3.69151 159.8 2.29152 157.4 3.29152 155.4L62.9915 41.7C63.9915 39.7 66.0915 38.5 68.2915 38.5H88.6915C90.5915 38.5 91.7915 40.5 90.8915 42.2L65.0915 91.6C64.4915 92.8 65.2915 94.2 66.5915 94.2H90.3915C91.4915 94.2 92.4915 93.6 93.0915 92.6L119.792 41.7C120.792 39.7 122.892 38.5 125.092 38.5H146.892C146.892 38.5 133.292 64.4 118.692 92.3L116.792 94.7C115.992 95.7 115.592 96.9 115.592 98.1C99.5915 128.7 83.3915 159.6 83.3915 159.8H61.6915ZM87.6915 159.8C87.6915 159.8 102.392 131.8 117.592 102.7L119.892 105.4C119.992 105.6 120.192 105.8 120.292 105.9L120.392 106C121.492 107.1 122.892 107.7 124.492 107.7H166.392L138.892 159.8H87.6915ZM132.992 189C132.392 189.8 131.692 190.1 130.892 190.1C129.792 190.1 128.692 189.3 128.292 188.2C128.292 188.1 128.192 188 128.192 187.9C128.192 187.8 128.192 187.7 128.192 187.6V187.5C128.192 187.4 128.192 187.3 128.192 187.2V187.1C128.192 187 128.192 187 128.192 186.9C128.192 186.8 128.192 186.8 128.292 186.7C128.292 186.6 128.292 186.6 128.292 186.5C128.292 186.4 128.392 186.2 128.492 186.1L139.392 165.4L142.292 159.9L169.792 107.8L171.092 105.4C172.092 103.5 170.692 101.2 168.592 101.2H121.592C120.392 101.2 119.392 100.4 118.992 99.5V99.4C118.992 99.3 118.892 99.1 118.892 99V98.9C118.892 98.8 118.892 98.6 118.892 98.5V98.4C118.892 98.2 118.892 98 118.892 97.9V97.8C118.892 97.6 118.992 97.5 118.992 97.3C118.992 97.3 118.992 97.2 119.092 97.2C119.192 97 119.292 96.9 119.392 96.7L163.892 38.6L166.192 35.6L190.192 4.19997C190.792 3.39997 191.492 3.09998 192.292 3.09998C192.392 3.09998 192.592 3.09998 192.692 3.09998H192.792C192.892 3.09998 193.092 3.19997 193.192 3.19997C193.292 3.29997 193.492 3.29997 193.592 3.39997C193.592 3.39997 193.692 3.39998 193.692 3.49998C193.792 3.59998 193.892 3.69998 194.092 3.79998C194.992 4.49998 195.392 5.79998 194.692 7.09998L179.192 36.5L178.092 38.6L149.392 93.1C148.392 95 149.792 97.3 151.892 97.3H155.392H196.692C196.892 97.3 196.992 97.3 197.192 97.3H197.292C197.392 97.3 197.492 97.4 197.692 97.4C197.692 97.4 197.692 97.4 197.792 97.4C197.892 97.4 197.992 97.5 198.192 97.6C199.692 98.4 200.292 100.4 199.092 101.8L132.992 189ZM164.392 159.8L178.892 140.6C172.892 152.1 168.892 159.7 168.892 159.8H164.392ZM316.992 42.3L256.792 157.1C255.892 158.7 254.192 159.8 252.392 159.8H231.292C229.392 159.8 228.192 157.8 229.092 156.2L283.992 51.4C284.692 50.1 283.691 48.5 282.191 48.5H258.892C257.792 48.5 256.791 49.1 256.191 50.1L200.092 157.1C199.192 158.7 197.492 159.8 195.692 159.8H173.192C173.192 159.8 181.892 143.2 192.892 122.3L204.392 107.1C205.692 105.3 205.992 103 204.992 101C204.892 100.7 204.692 100.5 204.492 100.2C220.492 69.6 236.691 38.7 236.691 38.5H314.792C316.692 38.5 317.892 40.6 316.992 42.3Z" fill="black"/>
<path d="M132.992 189C132.392 189.8 131.692 190.1 130.892 190.1C129.792 190.1 128.692 189.3 128.292 188.2C128.292 188.1 128.192 188 128.192 187.9C128.192 187.8 128.192 187.7 128.192 187.6V187.5C128.192 187.4 128.192 187.3 128.192 187.2V187.1C128.192 187 128.192 187 128.192 186.9C128.192 186.8 128.192 186.8 128.292 186.7C128.292 186.6 128.292 186.6 128.292 186.5C128.292 186.4 128.392 186.2 128.492 186.1L139.392 165.4L142.292 159.9L169.792 107.8L171.092 105.4C172.092 103.5 170.692 101.2 168.592 101.2H121.592C120.392 101.2 119.392 100.4 118.992 99.5V99.4C118.992 99.3 118.892 99.1 118.892 99V98.9C118.892 98.8 118.892 98.6 118.892 98.5V98.4C118.892 98.2 118.892 98 118.892 97.9V97.8C118.892 97.6 118.992 97.5 118.992 97.3C118.992 97.3 118.992 97.2 119.092 97.2C119.192 97 119.292 96.9 119.392 96.7L163.892 38.6L166.192 35.6L190.192 4.19997C190.792 3.39997 191.492 3.09998 192.292 3.09998C192.392 3.09998 192.592 3.09998 192.692 3.09998H192.792C192.892 3.09998 193.092 3.19997 193.192 3.19997C193.292 3.29997 193.492 3.29997 193.592 3.39997C193.592 3.39997 193.692 3.39998 193.692 3.49998C193.792 3.59998 193.892 3.69998 194.092 3.79998C194.992 4.49998 195.392 5.79998 194.692 7.09998L179.192 36.5L178.092 38.6L149.392 93.1C148.392 95 149.792 97.3 151.892 97.3H155.392H196.692C196.892 97.3 196.992 97.3 197.192 97.3H197.292C197.392 97.3 197.492 97.4 197.692 97.4C197.692 97.4 197.692 97.4 197.792 97.4C197.892 97.4 197.992 97.5 198.192 97.6C199.692 98.4 200.292 100.4 199.092 101.8L132.992 189Z" fill="white"/>
</svg>
