<?xml version="1.0" encoding="utf-8"?>
<!-- Generator: Adobe Illustrator 25.4.1, SVG Export Plug-In . SVG Version: 6.00 Build 0)  -->
<svg version="1.1" id="Слой_1" xmlns="http://www.w3.org/2000/svg" xmlns:xlink="http://www.w3.org/1999/xlink" x="0px" y="0px"
	 viewBox="0 0 398.6 270.4" style="enable-background:new 0 0 398.6 270.4;" xml:space="preserve">
<style type="text/css">
	.st0{fill:#5AB032;}
	.st1{fill:#7EBA28;}
	.st2{fill:#ABC91B;}
	.st3{fill:#138637;}
	.st4{fill:#DEDD0C;}
	.st5{fill:#FFFFFF;}
</style>
<g>
	<g id="логотип">
		<g id="цвета">
			<polygon class="st0" points="149.3,194.2 212.9,72.9 184.7,72.9 121,194.2 			"/>
			<polygon class="st1" points="176.6,194.2 240.2,72.9 212,72.9 148.4,194.2 			"/>
			<polygon class="st2" points="204.6,194.2 268.2,72.9 240,72.9 176.3,194.2 			"/>
			<path class="st3" d="M153.8,76.1L127.1,127c-0.5,1-1.5,1.6-2.7,1.6h-23.8c-1.3,0-2.2-1.4-1.5-2.6l25.9-49.4
				c0.9-1.7-0.3-3.7-2.2-3.7h-20.4c-2.2,0-4.3,1.2-5.3,3.2L37.5,189.8c-1,2,0.4,4.4,2.7,4.4h19.8c2.1,0,4.1-1.2,5.1-3.1l26.7-51
				c0.5-1,1.5-1.6,2.7-1.6H118c1.4,0,2.3,1.5,1.6,2.7l-26,49.5c-0.8,1.6,0.3,3.5,2.1,3.5h24.3l63.6-121.3h-24.6
				C156.9,72.9,154.9,74.1,153.8,76.1z"/>
			<path class="st4" d="M268.2,72.9l-63.6,121.3h25.2c1.9,0,3.6-1,4.4-2.7l56.1-107c0.5-1,1.5-1.6,2.7-1.6h23.3
				c1.5,0,2.5,1.6,1.8,2.9l-54.9,104.8c-0.9,1.6,0.3,3.6,2.2,3.6h21.1c1.9,0,3.6-1,4.4-2.7l60.2-114.8c0.9-1.7-0.3-3.8-2.3-3.8
				H268.2z"/>
		</g>
		<path id="чёрный_контур" d="M358.7,78.5c-0.2-0.3-0.4-0.6-0.6-0.8l0,0l-5-5.8c0,0,0,0,0,0c-1.1-1.2-2.6-2-4.3-2H221.9
			l12.4-23.6c1-1.8,0.9-3.8-0.1-5.5c-0.2-0.3-3.7-4.5-3.7-4.5c-1.1-1.2-2.6-1.9-4.3-1.9c-1.7,0-3.4,0.8-4.5,2.3l-25.4,33.2h-37.3
			c-3.3,0-6.4,1.8-7.9,4.8l-26.7,50.9H111l21.8-41.6c0.9-1.7,0.8-3.8-0.2-5.4c-0.2-0.3-0.3-0.5-0.5-0.7l0,0l-4.8-5.6l0,0
			c-1-1.4-2.7-2.3-4.5-2.3h-20.4c-3.4,0-6.4,1.8-8,4.8L34.8,188.4c-1,1.9-0.9,4.1,0.2,5.9c0.2,0.3,0.4,0.5,0.6,0.8l0,0l5,5.8
			c0,0,0,0,0.1,0.1l0.3,0.3l0,0c1.1,1.2,2.7,1.9,4.4,1.9H65c3.3,0,6.2-1.8,7.7-4.7l25.9-49.4c0.5-1,1.5-1.6,2.7-1.6H113l-22,41.9
			c-0.9,1.7-0.8,3.7,0.2,5.3c0.1,0.2,0.3,0.4,0.4,0.6l0,0l4.8,5.5c0.3,0.4,0.6,0.7,0.9,1l0,0l0,0c1,0.8,2.2,1.3,3.5,1.3h67.5
			l-8.4,16c-1,1.8-0.9,3.8,0.1,5.5c0.2,0.4,3.8,4.5,3.8,4.5l0,0c1.1,1.1,2.6,1.8,4.2,1.8c1.7,0,3.4-0.8,4.5-2.3l19.3-25.6h43
			c3,0,5.7-1.6,7.1-4.3l55.3-105.4c0.5-1,1.5-1.6,2.7-1.6h11.7l-51.1,97.4c-0.9,1.7-0.8,3.7,0.2,5.4c0.1,0.2,0.3,0.4,0.4,0.6l0,0
			l5,5.8c0,0.1,0.1,0.1,0.1,0.2l0.2,0.2l0,0c1,1.1,2.4,1.7,4,1.7h21.1c3,0,5.7-1.6,7.1-4.3L358.8,84
			C359.8,82.3,359.7,80.2,358.7,78.5z M266.5,72.9c0,0-15.2,28.9-30.7,58.5l-0.3-0.3l0,0c-1.1-1.6-2.9-2.6-4.8-2.6H191l29.3-55.7
			H266.5z M194.1,72.9l-27.7,36.2C177,88.9,185.2,73,185.2,72.9H194.1z M95.8,194.2c-1.8,0-2.9-1.9-2.1-3.5l26-49.5
			c0.6-1.2-0.2-2.7-1.6-2.7H94.4c-1.1,0-2.1,0.6-2.7,1.6l-26.7,51c-1,1.9-2.9,3.1-5.1,3.1H40.1c-2.3,0-3.7-2.4-2.7-4.4L97.1,76.1
			c1-2,3.1-3.2,5.3-3.2h20.4c1.9,0,3.1,2,2.2,3.7L99.2,126c-0.6,1.2,0.2,2.6,1.5,2.6h23.8c1.1,0,2.1-0.6,2.7-1.6l26.7-50.9
			c1-2,3.1-3.2,5.3-3.2H181c0,0-13.6,25.9-28.2,53.8l-1.9,2.4c-0.8,1-1.2,2.2-1.2,3.4c-16,30.6-32.2,61.5-32.2,61.7H95.8z
			 M121.8,194.2c0,0,14.7-28,29.9-57.1l2.3,2.7c0.1,0.2,0.3,0.4,0.4,0.5l0.1,0.1l0,0c1.1,1.1,2.5,1.7,4.1,1.7h41.9L173,194.2H121.8z
			 M167.1,223.4c-0.6,0.8-1.3,1.1-2.1,1.1c-1.1,0-2.2-0.8-2.6-1.9c0,0,0,0,0,0c0-0.1-0.1-0.2-0.1-0.3c0,0,0,0,0,0c0-0.1,0-0.2,0-0.3
			c0,0,0-0.1,0-0.1c0-0.1,0-0.2,0-0.3c0,0,0-0.1,0-0.1c0-0.1,0-0.1,0-0.2c0-0.1,0-0.1,0.1-0.2c0-0.1,0-0.1,0-0.2
			c0-0.1,0.1-0.3,0.2-0.4l10.9-20.7l2.9-5.5l0,0l27.5-52.1l1.3-2.4c1-1.9-0.4-4.2-2.5-4.2h-47c-1.2,0-2.2-0.8-2.6-1.7
			c0,0,0-0.1,0-0.1c0-0.1-0.1-0.3-0.1-0.4c0,0,0-0.1,0-0.1c0-0.1,0-0.3,0-0.4c0,0,0-0.1,0-0.1c0-0.2,0-0.4,0-0.5c0,0,0-0.1,0-0.1
			c0-0.2,0.1-0.3,0.1-0.5c0,0,0-0.1,0.1-0.1c0.1-0.2,0.2-0.3,0.3-0.5l44.5-58.1l0,0l2.3-3l0,0l24-31.4c0.6-0.8,1.3-1.1,2.1-1.1
			c0.1,0,0.3,0,0.4,0c0,0,0.1,0,0.1,0c0.1,0,0.3,0.1,0.4,0.1c0,0,0,0,0,0c0.1,0.1,0.3,0.1,0.4,0.2c0,0,0.1,0,0.1,0.1
			c0.1,0.1,0.2,0.2,0.4,0.3c0,0,0,0,0,0c0.9,0.7,1.3,2,0.6,3.3l-15.5,29.4l-1.1,2.1l0,0l-28.7,54.5c-1,1.9,0.4,4.2,2.5,4.2h3.5h41.3
			c0.2,0,0.3,0,0.5,0c0,0,0.1,0,0.1,0c0.1,0,0.2,0.1,0.4,0.1c0,0,0,0,0.1,0c0.1,0,0.2,0.1,0.4,0.2c0,0,0,0,0,0
			c1.5,0.8,2.1,2.8,0.9,4.2L167.1,223.4z M198.5,194.2L213,175c-6,11.5-10,19.1-10,19.2H198.5z M351.1,76.7l-60.2,114.8
			c-0.9,1.6-2.6,2.7-4.4,2.7h-21.1c-1.9,0-3.1-2-2.2-3.6l54.9-104.8c0.7-1.3-0.3-2.9-1.8-2.9H293c-1.1,0-2.1,0.6-2.7,1.6l-56.1,107
			c-0.9,1.6-2.6,2.7-4.4,2.7h-22.5c0,0,8.7-16.6,19.7-37.5l11.5-15.2c1.3-1.8,1.6-4.1,0.6-6.1c-0.1-0.3-0.3-0.5-0.5-0.8
			c16-30.6,32.2-61.5,32.2-61.7h78.1C350.8,72.9,352,75,351.1,76.7z"/>
		<path id="белый_цвет_на_молнии" class="st5" d="M167.1,223.4c-0.6,0.8-1.3,1.1-2.1,1.1c-1.1,0-2.2-0.8-2.6-1.9
			c0,0,0,0,0,0c0-0.1-0.1-0.2-0.1-0.3c0,0,0,0,0,0c0-0.1,0-0.2,0-0.3c0,0,0-0.1,0-0.1c0-0.1,0-0.2,0-0.3c0,0,0-0.1,0-0.1
			c0-0.1,0-0.1,0-0.2c0-0.1,0-0.1,0.1-0.2c0-0.1,0-0.1,0-0.2c0-0.1,0.1-0.3,0.2-0.4l10.9-20.7l2.9-5.5l0,0l27.5-52.1l1.3-2.4
			c1-1.9-0.4-4.2-2.5-4.2h-47c-1.2,0-2.2-0.8-2.6-1.7c0,0,0-0.1,0-0.1c0-0.1-0.1-0.3-0.1-0.4c0,0,0-0.1,0-0.1c0-0.1,0-0.3,0-0.4
			c0,0,0-0.1,0-0.1c0-0.2,0-0.4,0-0.5c0,0,0-0.1,0-0.1c0-0.2,0.1-0.3,0.1-0.5c0,0,0-0.1,0.1-0.1c0.1-0.2,0.2-0.3,0.3-0.5l44.5-58.1
			l0,0l2.3-3l0,0l24-31.4c0.6-0.8,1.3-1.1,2.1-1.1c0.1,0,0.3,0,0.4,0c0,0,0.1,0,0.1,0c0.1,0,0.3,0.1,0.4,0.1c0,0,0,0,0,0
			c0.1,0.1,0.3,0.1,0.4,0.2c0,0,0.1,0,0.1,0.1c0.1,0.1,0.2,0.2,0.4,0.3c0,0,0,0,0,0c0.9,0.7,1.3,2,0.6,3.3l-15.5,29.4l-1.1,2.1l0,0
			l-28.7,54.5c-1,1.9,0.4,4.2,2.5,4.2h3.5h41.3c0.2,0,0.3,0,0.5,0c0,0,0.1,0,0.1,0c0.1,0,0.2,0.1,0.4,0.1c0,0,0,0,0.1,0
			c0.1,0,0.2,0.1,0.4,0.2c0,0,0,0,0,0c1.5,0.8,2.1,2.8,0.9,4.2L167.1,223.4z"/>
	</g>
</g>
</svg>
